<?xml version="1.0" encoding="UTF-8" standalone="no"?>
<!-- Created with Inkscape (http://www.inkscape.org/) -->

<svg
   width="1080"
   height="175.31326"
   viewBox="0 0 285.75 46.384966"
   version="1.1"
   id="svg1"
   xml:space="preserve"
   inkscape:version="1.4.2 (ebf0e94, 2025-05-08)"
   sodipodi:docname="power-automate-101-banner.svg"
   xmlns:inkscape="http://www.inkscape.org/namespaces/inkscape"
   xmlns:sodipodi="http://sodipodi.sourceforge.net/DTD/sodipodi-0.dtd"
   xmlns:xlink="http://www.w3.org/1999/xlink"
   xmlns="http://www.w3.org/2000/svg"
   xmlns:svg="http://www.w3.org/2000/svg"><sodipodi:namedview
     id="namedview1"
     pagecolor="#ffffff"
     bordercolor="#666666"
     borderopacity="1.0"
     inkscape:showpageshadow="2"
     inkscape:pageopacity="0.0"
     inkscape:pagecheckerboard="0"
     inkscape:deskcolor="#d1d1d1"
     inkscape:document-units="mm"
     inkscape:zoom="0.97386896"
     inkscape:cx="572.45894"
     inkscape:cy="107.30396"
     inkscape:window-width="1920"
     inkscape:window-height="991"
     inkscape:window-x="-9"
     inkscape:window-y="1341"
     inkscape:window-maximized="1"
     inkscape:current-layer="layer1" /><defs
     id="defs1"><linearGradient
       id="linearGradient1"
       inkscape:collect="always"><stop
         style="stop-color:#4968dd;stop-opacity:1;"
         offset="0"
         id="stop1" /><stop
         style="stop-color:#a575e1;stop-opacity:1;"
         offset="0.55642021"
         id="stop3" /><stop
         style="stop-color:#f281e6;stop-opacity:1;"
         offset="1"
         id="stop2" /></linearGradient><linearGradient
       inkscape:collect="always"
       xlink:href="#linearGradient1"
       id="linearGradient2"
       x1="0"
       y1="26.458332"
       x2="285.75"
       y2="26.458332"
       gradientUnits="userSpaceOnUse"
       gradientTransform="scale(1,0.87656639)" /></defs><g
     inkscape:label="Layer 1"
     inkscape:groupmode="layer"
     id="layer1"><path
       id="rect1"
       style="fill:url(#linearGradient2);stroke-width:0.468125"
       d="M 5.0011063,0 H 280.74889 C 283.51951,0 285.75,2.2304934 285.75,5.0011063 V 41.383862 c 0,2.770612 -2.23049,5.001106 -5.00111,5.001106 H 5.0011063 C 2.2304934,46.384968 0,44.154474 0,41.383862 V 5.0011063 C 0,2.2304934 2.2304934,0 5.0011063,0 Z" /><g
       id="g3"><path
         style="font-size:20.1914px;line-height:1.25;font-family:Magnetar;-inkscape-font-specification:'Magnetar, Normal';stroke-width:0.191939"
         d="M 23.650141,9.7620856 H 14.039034 V 23.795109 h 3.493113 v -10.51972 h 6.117994 c 0.484594,0 0.888422,0.383637 0.888422,0.868231 0,0.484593 -0.403828,0.888421 -0.888422,0.888421 h -4.361343 v 3.513304 h 4.361343 c 2.422968,0 4.401725,-1.978757 4.401725,-4.401725 0,-2.422969 -1.978757,-4.3815344 -4.401725,-4.3815344 z m 6.118011,6.8246934 v 0.181723 c 0,4.098854 3.311389,7.410244 7.410244,7.410244 h 0.181722 c 4.098855,0 7.410244,-3.31139 7.410244,-7.410244 v -0.181723 c 0,-4.098854 -3.311389,-7.410244 -7.410244,-7.410244 h -0.181722 c -4.098855,0 -7.410244,3.31139 -7.410244,7.410244 z m 3.493112,0.08077 c 0,-2.200863 1.797035,-3.997898 3.997897,-3.997898 2.221054,0 4.018089,1.797035 4.018089,3.997898 0,2.221054 -1.797035,4.018088 -4.018089,4.018088 -2.200862,0 -3.997897,-1.797034 -3.997897,-4.018088 z M 65.244445,9.7015114 60.681189,17.61654 59.671619,15.859889 57.632287,12.346585 54.583386,17.61654 50.020129,9.7015114 h -4.03828 l 8.601537,14.9416366 v 0 0 0 0 l 3.048901,-5.269956 3.048902,5.269956 v 0 0 0 L 69.302917,9.7015114 Z M 83.436889,13.255198 V 9.7418942 H 71.180709 V 23.795109 h 12.25618 v -3.513304 h -8.763068 v -1.756652 h 7.006416 V 15.01185 h -7.006416 v -1.756652 z m 13.50804,10.539911 h 4.139241 l -3.493116,-5.633401 c 1.574929,-0.666316 2.685456,-2.221054 2.685456,-4.03828 0,-2.422968 -1.978757,-4.3815338 -4.401725,-4.3815338 H 86.263678 V 23.774918 h 3.493113 v -5.249765 h 3.937323 z M 89.756791,13.255198 h 6.117994 c 0.484593,0 0.888421,0.383637 0.888421,0.86823 0,0.484594 -0.403828,0.888422 -0.888421,0.888422 H 89.756791 Z M 118.77185,8.8534726 v 0 0 0 l -8.60154,14.9416364 h 4.03828 l 4.56326,-7.915029 1.53454,2.645073 h -1.02976 l -2.01914,3.513304 h 5.06804 l 1.02977,1.756652 h 4.03828 z M 138.35751,9.68132 v 7.49101 c 0,1.938374 -1.57493,3.513303 -3.51331,3.513303 -1.93837,0 -3.5133,-1.574929 -3.5133,-3.513303 V 9.68132 h -3.49311 v 7.49101 c 0,3.876749 3.12966,7.006416 7.00641,7.006416 h 0.0202 c 3.85656,0 7.00642,-3.129667 7.00642,-7.006416 V 9.68132 Z m 19.40394,0.060574 h -14.01284 v 3.5133038 h 5.24977 v 10.51972 h 3.49311 v -10.51972 h 5.26996 z m 1.23169,6.8448848 v 0.181723 c 0,4.098854 3.31139,7.410244 7.41025,7.410244 h 0.18172 c 4.09886,0 7.41025,-3.31139 7.41025,-7.410244 v -0.181723 c 0,-4.098854 -3.31139,-7.410244 -7.41025,-7.410244 h -0.18172 c -4.09886,0 -7.41025,3.31139 -7.41025,7.410244 z m 3.49312,0.08077 c 0,-2.200863 1.79703,-3.997898 3.99789,-3.997898 2.22106,0 4.01809,1.797035 4.01809,3.997898 0,2.221054 -1.79703,4.018088 -4.01809,4.018088 -2.20086,0 -3.99789,-1.797034 -3.99789,-4.018088 z m 22.02882,-3.230624 -7.89483,-4.563257 v 14.901254 h 3.49311 v -8.823642 l 4.40172,2.523925 4.38154,-2.523925 v 8.843833 h 3.5133 V 8.873664 Z m 18.43473,-4.5834484 v 0 0 0 l -8.60153,14.9416364 h 4.03828 l 1.00957,-1.756652 h 7.10737 l 1.02976,1.756652 h 4.03828 z m -1.51435,9.6716804 1.51435,-2.645073 1.53455,2.645073 z M 224.27193,9.7418942 H 210.2591 v 3.5133038 h 5.24976 v 10.51972 h 3.49311 v -10.51972 h 5.26996 z m 14.45705,3.5133038 V 9.7418942 H 226.4728 V 23.795109 h 12.25618 v -3.513304 h -8.76307 v -1.756652 h 7.00642 V 15.01185 h -7.00642 v -1.756652 z m 10.66108,-3.5133038 v 3.5133038 h 5.24976 V 9.7418942 Z m 5.24976,14.0532148 V 15.01185 h -3.5133 v 8.783259 z m 9.24767,-3.109476 c -1.45378,0 -2.64507,-1.171101 -2.64507,-2.624882 v -2.665265 c 0,-0.02019 0,-0.04038 0.0202,-0.06057 L 258.456,12.548499 c -0.4644,0.848039 -0.7067,1.817226 -0.7067,2.867179 v 2.645073 c 0,3.371964 2.74603,6.138186 6.118,6.138186 h 0.0202 c 1.71627,0 3.27101,-0.706699 4.38153,-1.837417 l -2.48354,-2.483543 c -0.48459,0.504785 -1.15091,0.807656 -1.89799,0.807656 z m 0,-11.408141 h -0.0202 c -1.69608,0 -3.25082,0.706699 -4.36135,1.837417 l 2.46336,2.463351 c 0.48459,-0.484593 1.1711,-0.807656 1.91818,-0.807656 1.45378,0 2.62488,1.171102 2.62488,2.624882 v 2.665265 c 0,0.02019 0,0.04038 0,0.06057 l 2.80661,2.806605 c 0.44421,-0.86823 0.70669,-1.837417 0.70669,-2.867179 v -2.645073 c 0,-3.392156 -2.74603,-6.138186 -6.13818,-6.138186 z m 8.19771,0.4644022 v 3.5133038 h 5.24977 V 9.7418942 Z m 5.24977,14.0532148 V 15.01185 h -3.51331 v 8.783259 z"
         id="text3"
         transform="scale(0.68737441,1.4548112)"
         aria-label="Power Automate 101" /><path
         style="font-size:20.1914px;line-height:1.25;font-family:Magnetar;-inkscape-font-specification:'Magnetar, Normal';fill:#f9f9f9;stroke-width:0.191939"
         d="M 21.513098,8.1694686 H 11.901991 V 22.202492 h 3.493113 v -10.51972 h 6.117994 c 0.484594,0 0.888422,0.383637 0.888422,0.868231 0,0.484593 -0.403828,0.888421 -0.888422,0.888421 h -4.361343 v 3.513304 h 4.361343 c 2.422968,0 4.401725,-1.978757 4.401725,-4.401725 0,-2.422969 -1.978757,-4.3815344 -4.401725,-4.3815344 z m 6.118011,6.8246934 v 0.181723 c 0,4.098854 3.311389,7.410244 7.410244,7.410244 h 0.181722 c 4.098855,0 7.410244,-3.31139 7.410244,-7.410244 v -0.181723 c 0,-4.098854 -3.311389,-7.410244 -7.410244,-7.410244 h -0.181722 c -4.098855,0 -7.410244,3.31139 -7.410244,7.410244 z m 3.493112,0.08077 c 0,-2.200863 1.797035,-3.997898 3.997897,-3.997898 2.221054,0 4.018089,1.797035 4.018089,3.997898 0,2.221054 -1.797035,4.018088 -4.018089,4.018088 -2.200862,0 -3.997897,-1.797034 -3.997897,-4.018088 z m 31.983181,-6.9660336 -4.563256,7.9150286 -1.00957,-1.756651 -2.039332,-3.513304 -3.048901,5.269955 -4.563257,-7.9150286 h -4.03828 l 8.601537,14.9416366 v 0 0 0 0 l 3.048901,-5.269956 3.048902,5.269956 v 0 0 0 L 67.165874,8.1088944 Z M 81.299846,11.662581 V 8.1492772 H 69.043666 V 22.202492 h 12.25618 v -3.513304 h -8.763068 v -1.756652 h 7.006416 v -3.513303 h -7.006416 v -1.756652 z m 13.50804,10.539911 h 4.139237 l -3.493112,-5.633401 c 1.574929,-0.666316 2.685456,-2.221054 2.685456,-4.03828 0,-2.422968 -1.978757,-4.3815338 -4.401725,-4.3815338 H 84.126635 V 22.182301 h 3.493113 v -5.249765 h 3.937323 z M 87.619748,11.662581 h 6.117994 c 0.484593,0 0.888421,0.383637 0.888421,0.86823 0,0.484594 -0.403828,0.888422 -0.888421,0.888422 H 87.619748 Z M 116.6348,7.2608556 v 0 0 0 l -8.60153,14.9416364 h 4.03828 l 4.56325,-7.915029 1.53455,2.645073 h -1.02976 l -2.01914,3.513304 h 5.06804 l 1.02976,1.756652 h 4.03828 z m 19.58566,0.8278474 v 7.49101 c 0,1.938374 -1.57493,3.513303 -3.5133,3.513303 -1.93837,0 -3.5133,-1.574929 -3.5133,-3.513303 v -7.49101 h -3.49312 v 7.49101 c 0,3.876748 3.12967,7.006416 7.00642,7.006416 h 0.0202 c 3.85656,0 7.00642,-3.129668 7.00642,-7.006416 v -7.49101 z m 19.40394,0.060574 h -14.01283 v 3.5133038 h 5.24977 v 10.51972 h 3.49311 v -10.51972 h 5.26995 z m 1.2317,6.8448848 v 0.181723 c 0,4.098854 3.31139,7.410244 7.41025,7.410244 h 0.18172 c 4.09885,0 7.41024,-3.31139 7.41024,-7.410244 v -0.181723 c 0,-4.098854 -3.31139,-7.410244 -7.41024,-7.410244 h -0.18172 c -4.09886,0 -7.41025,3.31139 -7.41025,7.410244 z m 3.49311,0.08077 c 0,-2.200863 1.79704,-3.997898 3.9979,-3.997898 2.22106,0 4.01809,1.797035 4.01809,3.997898 0,2.221054 -1.79703,4.018088 -4.01809,4.018088 -2.20086,0 -3.9979,-1.797034 -3.9979,-4.018088 z m 22.02883,-3.230625 -7.89484,-4.563256 v 14.901254 h 3.49311 v -8.823642 l 4.40173,2.523925 4.38153,-2.523925 v 8.843833 h 3.51331 V 7.281047 Z m 18.43473,-4.5834474 v 0 0 0 l -8.60153,14.9416364 h 4.03828 l 1.00957,-1.756652 h 7.10737 l 1.02976,1.756652 h 4.03828 z m -1.51435,9.6716804 1.51435,-2.645073 1.53455,2.645073 z m 22.83647,-8.7832588 h -14.01284 v 3.5133038 h 5.24977 v 10.51972 h 3.49311 v -10.51972 h 5.26996 z m 14.45705,3.5133038 V 8.1492772 H 224.33576 V 22.202492 h 12.25618 v -3.513304 h -8.76307 v -1.756652 h 7.00642 v -3.513303 h -7.00642 v -1.756652 z m 10.66107,-3.5133038 v 3.5133038 h 5.24977 V 8.1492772 Z m 5.24977,14.0532148 v -8.783259 h -3.51331 v 8.783259 z m 9.24767,-3.109476 c -1.45379,0 -2.64508,-1.171101 -2.64508,-2.624882 v -2.665265 c 0,-0.02019 0,-0.04038 0.0202,-0.06057 l -2.8066,-2.786413 c -0.4644,0.848039 -0.7067,1.817226 -0.7067,2.867179 v 2.645073 c 0,3.371964 2.74603,6.138186 6.11799,6.138186 h 0.0202 c 1.71626,0 3.271,-0.706699 4.38153,-1.837417 l -2.48354,-2.483543 c -0.4846,0.504785 -1.15091,0.807656 -1.89799,0.807656 z m 0,-11.408141 h -0.0202 c -1.69607,0 -3.25081,0.706699 -4.36134,1.8374174 l 2.46335,2.4633506 c 0.4846,-0.484593 1.1711,-0.807656 1.91819,-0.807656 1.45378,0 2.62488,1.171102 2.62488,2.624882 v 2.665265 c 0,0.02019 0,0.04038 0,0.06057 l 2.8066,2.806605 c 0.44421,-0.86823 0.7067,-1.837417 0.7067,-2.867179 v -2.645073 c 0,-3.392156 -2.74603,-6.138186 -6.13818,-6.138186 z m 8.19771,0.4644022 v 3.5133038 h 5.24976 V 8.1492772 Z m 5.24976,14.0532148 v -8.783259 h -3.5133 v 8.783259 z"
         id="text2"
         transform="scale(0.68737441,1.4548112)"
         aria-label="Power Automate 101" /></g><g
       id="g1354"
       transform="matrix(0.53170728,0,0,0.53170728,159.00478,-69.239985)"><path
         style="fill:#a4cbf7;stroke-width:0.264583"
         d="m 153.74261,201.27718 c -0.43662,-0.19029 -0.94675,-0.53021 -1.13363,-0.75538 -0.53197,-0.64098 -0.69623,-2.85375 -0.28376,-3.82267 0.19754,-0.46403 4.28822,-5.33783 9.09041,-10.83067 10.4223,-11.92125 10.34479,-11.82318 9.87458,-12.49232 -0.19227,-0.27361 -4.51677,-5.28223 -9.61,-11.13027 -9.99129,-11.47199 -9.99633,-11.47934 -9.49645,-13.83914 0.17631,-0.83229 0.46352,-1.26746 1.13506,-1.71979 l 0.89902,-0.60557 h 20.61151 c 17.73334,0 20.71786,0.055 21.37312,0.39385 0.41889,0.21661 3.18118,3.18163 6.13843,6.58892 18.52854,21.34831 17.36444,19.81719 16.61345,21.85139 -0.26069,0.70612 -3.99593,5.19338 -11.34082,13.62411 -9.34566,10.72727 -11.09206,12.61007 -11.90625,12.83624 -1.5498,0.4305 -40.96311,0.3378 -41.96467,-0.0987 z"
         id="path984" /><path
         style="fill:#6ab6fa;stroke-width:0.264583"
         d="m 153.68941,200.87436 c -0.94413,-0.59075 -1.66649,-1.78377 -1.66649,-2.7523 0,-0.35073 0.27658,-1.04524 0.61462,-1.54337 0.33804,-0.49813 4.80874,-5.71245 9.93489,-11.58737 6.06619,-6.95226 9.29264,-10.84749 9.24111,-11.15658 -0.0435,-0.2612 -4.30588,-5.31821 -9.47187,-11.23779 -5.16599,-5.91958 -9.60803,-11.1345 -9.87121,-11.58871 -0.72841,-1.25713 -0.44865,-2.72861 0.72287,-3.80223 l 0.93848,-0.86005 h 20.69116 20.69116 l 0.81012,0.56971 c 0.93411,0.6569 11.20853,12.3779 11.76361,13.41985 0.20358,0.38215 2.40623,2.99608 4.89479,5.80875 2.48855,2.81267 4.79253,5.48821 5.11996,5.94566 0.63175,0.88263 0.77623,2.26318 0.32507,3.10618 -0.5323,0.9946 -21.45514,25.00164 -22.16044,25.42707 -0.64469,0.38886 -2.87447,0.45272 -21.22557,0.60785 -20.21171,0.17085 -20.51733,0.16575 -21.35226,-0.35667 z"
         id="path982" /><path
         style="fill:#3385f1;stroke-width:0.264583"
         d="m 153.74271,200.62089 c -0.43656,-0.27051 -1.02312,-0.9291 -1.30345,-1.46354 -0.50588,-0.96441 -0.50563,-0.97882 0.0331,-1.92146 0.29853,-0.52236 4.75461,-5.76378 9.90241,-11.6476 5.14779,-5.88382 9.46562,-10.92575 9.59516,-11.20429 0.30484,-0.65546 0.68655,-0.17931 -10.19421,-12.71657 -5.00023,-5.76146 -9.24015,-10.73071 -9.42205,-11.04276 -0.18191,-0.31205 -0.33073,-0.8003 -0.33073,-1.085 0,-0.75182 0.96131,-2.26337 1.65329,-2.59959 0.40575,-0.19715 7.02756,-0.34207 20.76936,-0.45456 18.27205,-0.14957 20.25891,-0.1247 21.07773,0.26386 0.99502,0.47217 12.06212,12.8912 12.06212,13.53561 0,0.20576 -6.75042,8.19669 -15.00094,17.75764 -19.74686,22.88325 -19.61629,22.7343 -20.08841,22.91547 -0.22445,0.0861 -4.35719,0.15616 -9.18386,0.15562 -8.09166,-9.1e-4 -8.83763,-0.0393 -9.5695,-0.49283 z"
         id="path980" /><path
         style="fill:#0f4bc9;stroke-width:0.264583"
         d="m 171.19915,172.34127 c -0.57429,-0.69123 -4.38066,-5.1263 -8.45859,-9.85573 -10.75626,-12.47468 -10.18847,-11.75028 -10.18847,-12.99867 0,-0.81028 0.17487,-1.23982 0.73125,-1.79621 l 0.73125,-0.73125 20.47211,-0.19066 c 13.64585,-0.12709 20.56096,-0.1018 20.73858,0.0758 0.17892,0.17892 -0.20262,0.81433 -1.16117,1.93377 -1.2607,1.47232 -8.87812,10.28558 -18.3076,21.18168 -1.73159,2.00091 -3.23044,3.63802 -3.33077,3.63802 -0.10034,0 -0.6523,-0.56555 -1.22659,-1.25677 z"
         id="path976" /></g></g></svg>
